# xmcd CD database file
#
# Track frame offsets:
#	150
#	21304
#	42401
#	86488
#	127941
#
# Disc length: 3060 seconds
#
# Revision: 0
# Processed by: cddbd v1.5.2PL0 Copyright (c) Steve Scherf et al.
# Submitted via: CDex 1.51
#
DISCID=370bf205
DTITLE=Music for Wellness - Balance And Harmony
DYEAR=2006
DGENRE=New Age
TTITLE0=Stonehenge
TTITLE1=A Call Of Nature
TTITLE2=Awakening
TTITLE3=Pulse Of A New Day
TTITLE4=Daybreak
EXTD=YEAR: 2006
EXTT0=
EXTT1=
EXTT2=
EXTT3=
EXTT4=
PLAYORDER=
